<svg xmlns="http://www.w3.org/2000/svg" xmlns:xlink="http://www.w3.org/1999/xlink" width="121" zoomAndPan="magnify" viewBox="0 0 90.75 44.999999" height="60" preserveAspectRatio="xMidYMid meet" version="1.0"><defs><g/><clipPath id="id1"><path d="M 54.820312 0.0625 L 90.5 0.0625 L 90.5 33.0625 L 54.820312 33.0625 Z M 54.820312 0.0625 " clip-rule="nonzero"/></clipPath></defs><g clip-path="url(#id1)"><path fill="rgb(67.83905%, 0%, 94.509888%)" d="M 80.53125 8.304688 L 83.980469 4.53125 C 82.976562 3.707031 81.898438 2.960938 80.738281 2.347656 C 79.480469 1.679688 78.148438 1.152344 76.773438 0.773438 L 75.550781 5.179688 C 76.9375 5.71875 78.238281 6.441406 79.390625 7.332031 C 79.789062 7.640625 80.167969 7.964844 80.53125 8.304688 Z M 87.074219 7.761719 C 86.039062 8.972656 84.777344 10.449219 83.457031 11.988281 C 83.816406 12.617188 84.128906 13.273438 84.394531 13.949219 L 89.433594 11.957031 C 88.832031 10.46875 88.03125 9.054688 87.074219 7.761719 Z M 59.316406 4.5625 L 60.726562 6.308594 C 61.941406 5.628906 63.234375 5.078125 64.585938 4.695312 C 65.3125 4.488281 66.046875 4.332031 66.792969 4.226562 L 66.082031 0.847656 C 65.128906 1.136719 64.183594 1.507812 63.296875 1.925781 C 61.859375 2.605469 60.511719 3.5 59.316406 4.5625 Z M 85.324219 20.453125 L 90.605469 20.808594 C 90.90625 18.246094 90.65625 15.644531 89.871094 13.179688 L 84.808594 15.183594 C 85.296875 16.898438 85.464844 18.675781 85.324219 20.453125 Z M 67.378906 0.503906 L 68.132812 4.082031 C 68.710938 4.042969 69.289062 4.03125 69.867188 4.042969 C 71.351562 4.074219 72.847656 4.3125 74.28125 4.742188 L 75.46875 0.457031 C 74.367188 0.230469 73.242188 0.101562 72.109375 0.0703125 C 70.523438 0.0273438 68.925781 0.164062 67.378906 0.503906 Z M 54.820312 11.335938 C 55.15625 11.113281 55.730469 10.351562 55.925781 10.136719 C 56.394531 9.625 56.882812 9.128906 57.40625 8.667969 C 58.089844 8.0625 58.820312 7.507812 59.585938 7.003906 L 58.355469 5.480469 C 56.738281 7.160156 55.492188 9.164062 54.820312 11.335938 Z M 88.058594 28.769531 C 86.976562 30.191406 84.996094 32 83.546875 33.0625 L 80.472656 29.195312 C 81.355469 28.445312 82.824219 27.042969 83.511719 26.101562 Z M 90.410156 22.089844 C 90.0625 23.847656 89.429688 25.570312 88.59375 27.171875 L 84.140625 25.085938 C 84.601562 24.019531 84.960938 22.882812 85.164062 21.734375 L 90.410156 22.089844 " fill-opacity="1" fill-rule="nonzero"/></g><path fill="rgb(67.83905%, 0%, 94.509888%)" d="M 72.742188 17.15625 C 77.636719 12.429688 87.402344 3.414062 87.402344 3.414062 C 87.402344 3.414062 80.871094 15.269531 77.554688 20.976562 Z M 72.0625 22.992188 C 71.472656 22.570312 71.351562 21.761719 71.800781 21.179688 C 72.25 20.597656 73.09375 20.46875 73.6875 20.886719 C 74.28125 21.308594 74.398438 22.117188 73.949219 22.699219 C 73.5 23.28125 72.65625 23.414062 72.0625 22.992188 Z M 71.8125 18.058594 C 70.914062 18.941406 70.285156 19.582031 70.085938 19.84375 C 68.894531 21.386719 69.207031 23.539062 70.78125 24.65625 C 72.355469 25.773438 74.597656 25.425781 75.785156 23.882812 C 75.964844 23.648438 76.359375 23.007812 76.902344 22.097656 L 71.8125 18.058594 " fill-opacity="1" fill-rule="nonzero"/><g fill="rgb(0%, 0%, 0%)" fill-opacity="1"><g transform="translate(7.106447, 24.381573)"><g><path d="M 5.695312 -3.445312 L 3.417969 -3.445312 L 4.558594 -6.652344 Z M 9.0625 0 L 5.40625 -9.007812 L 3.722656 -9.007812 L 0.0664062 0 L 2.199219 0 L 2.847656 -1.816406 L 6.28125 -1.816406 L 6.929688 0 Z M 9.0625 0 "/></g></g></g><g fill="rgb(0%, 0%, 0%)" fill-opacity="1"><g transform="translate(17.692052, 24.381573)"><g><path d="M 5.300781 -7.285156 C 6.175781 -7.285156 7.074219 -6.929688 7.511719 -5.976562 L 9.699219 -5.976562 C 9.074219 -7.84375 7.285156 -9.140625 5.300781 -9.140625 C 2.753906 -9.140625 0.664062 -7.046875 0.664062 -4.503906 C 0.664062 -1.960938 2.753906 0.132812 5.300781 0.132812 C 7.871094 0.132812 9.921875 -1.949219 9.921875 -4.503906 L 9.921875 -4.808594 L 5.484375 -4.808594 L 5.484375 -3.3125 L 7.777344 -3.3125 C 7.285156 -1.949219 6.175781 -1.667969 5.300781 -1.667969 C 3.867188 -1.667969 2.675781 -2.953125 2.675781 -4.476562 C 2.675781 -6 3.867188 -7.285156 5.300781 -7.285156 Z M 5.300781 -7.285156 "/></g></g></g><g fill="rgb(0%, 0%, 0%)" fill-opacity="1"><g transform="translate(29.536257, 24.381573)"><g><path d="M 2.78125 0 L 2.78125 -9.007812 L 0.796875 -9.007812 L 0.796875 0 Z M 2.78125 0 "/></g></g></g><g fill="rgb(0%, 0%, 0%)" fill-opacity="1"><g transform="translate(34.570791, 24.381573)"><g><path d="M 0.796875 0 L 6.015625 0 L 6.015625 -1.800781 L 2.78125 -1.800781 L 2.78125 -9.007812 L 0.796875 -9.007812 Z M 0.796875 0 "/></g></g></g><g fill="rgb(0%, 0%, 0%)" fill-opacity="1"><g transform="translate(42.506718, 24.381573)"><g><path d="M 2.78125 0 L 2.78125 -9.007812 L 0.796875 -9.007812 L 0.796875 0 Z M 2.78125 0 "/></g></g></g><g fill="rgb(0%, 0%, 0%)" fill-opacity="1"><g transform="translate(47.541251, 24.381573)"><g><path d="M 7.046875 -1.800781 L 3.496094 -1.800781 L 7.261719 -9.007812 L 0.53125 -9.007812 L 0.53125 -7.207031 L 4.027344 -7.207031 L 0.265625 0 L 7.046875 0 Z M 7.046875 -1.800781 "/></g></g></g><g fill="rgb(0%, 0%, 0%)" fill-opacity="1"><g transform="translate(56.523805, 24.381573)"><g><path d="M 5.695312 -3.445312 L 3.417969 -3.445312 L 4.558594 -6.652344 Z M 9.0625 0 L 5.40625 -9.007812 L 3.722656 -9.007812 L 0.0664062 0 L 2.199219 0 L 2.847656 -1.816406 L 6.28125 -1.816406 L 6.929688 0 Z M 9.0625 0 "/></g></g></g><g fill="rgb(0%, 0%, 0%)" fill-opacity="1"><g transform="translate(5.906987, 39.287489)"><g><path d="M 12.03125 -9.007812 L 9.84375 -9.007812 L 8.785156 -2.796875 L 7.023438 -9.007812 L 5.074219 -9.007812 L 3.3125 -2.796875 L 2.253906 -9.007812 L 0.0664062 -9.007812 L 1.816406 0 L 4.171875 0 L 6.054688 -6.320312 L 7.921875 0 L 10.28125 0 Z M 12.03125 -9.007812 "/></g></g></g><g fill="rgb(0%, 0%, 0%)" fill-opacity="1"><g transform="translate(19.46023, 39.287489)"><g><path d="M 6.015625 -1.800781 L 2.78125 -1.800781 L 2.78125 -3.617188 L 5.882812 -3.617188 L 5.882812 -5.417969 L 2.78125 -5.417969 L 2.78125 -7.207031 L 6.015625 -7.207031 L 6.015625 -9.007812 L 0.796875 -9.007812 L 0.796875 0 L 6.015625 0 Z M 6.015625 -1.800781 "/></g></g></g><g fill="rgb(0%, 0%, 0%)" fill-opacity="1"><g transform="translate(27.727369, 39.287489)"><g><path d="M 5.140625 -2.636719 C 5.140625 -2.039062 4.636719 -1.550781 4.039062 -1.550781 L 2.78125 -1.550781 L 2.78125 -3.722656 L 4.039062 -3.722656 C 4.636719 -3.722656 5.140625 -3.21875 5.140625 -2.636719 Z M 4.519531 -6.398438 C 4.519531 -5.828125 4.039062 -5.351562 3.472656 -5.351562 L 2.78125 -5.351562 L 2.78125 -7.445312 L 3.472656 -7.445312 C 4.039062 -7.445312 4.519531 -6.980469 4.519531 -6.398438 Z M 7.167969 -2.582031 C 7.167969 -3.800781 6.347656 -4.609375 5.339844 -4.847656 C 6.015625 -5.152344 6.414062 -5.84375 6.414062 -6.757812 C 6.414062 -7.988281 5.433594 -9.007812 3.894531 -9.007812 L 0.796875 -9.007812 L 0.796875 0 L 4.4375 0 C 6.160156 0 7.167969 -1.035156 7.167969 -2.582031 Z M 7.167969 -2.582031 "/></g></g></g><g fill="rgb(0%, 0%, 0%)" fill-opacity="1"><g transform="translate(36.484696, 39.287489)"><g><path d="M 4.292969 -1.40625 C 3.3125 -1.40625 2.464844 -1.894531 2.410156 -2.96875 L 0.398438 -2.96875 C 0.410156 -0.769531 2.226562 0.210938 4.214844 0.210938 C 6.054688 0.210938 7.949219 -0.570312 7.949219 -2.691406 C 7.949219 -6.121094 2.742188 -4.96875 2.742188 -6.570312 C 2.742188 -7.246094 3.523438 -7.511719 4.082031 -7.511719 C 5.074219 -7.511719 5.617188 -7.207031 5.722656 -6.265625 L 7.644531 -6.265625 C 7.578125 -8.320312 5.910156 -9.140625 4.054688 -9.140625 C 2.410156 -9.140625 0.6875 -8.265625 0.6875 -6.414062 C 0.6875 -3.085938 5.894531 -4.214844 5.894531 -2.464844 C 5.894531 -1.65625 4.914062 -1.40625 4.292969 -1.40625 Z M 4.292969 -1.40625 "/></g></g></g><g fill="rgb(0%, 0%, 0%)" fill-opacity="1"><g transform="translate(46.288648, 39.287489)"><g><path d="M 2.78125 0 L 2.78125 -9.007812 L 0.796875 -9.007812 L 0.796875 0 Z M 2.78125 0 "/></g></g></g><g fill="rgb(0%, 0%, 0%)" fill-opacity="1"><g transform="translate(51.323182, 39.287489)"><g><path d="M 4.625 -7.207031 L 7.195312 -7.207031 L 7.195312 -9.007812 L 0.0664062 -9.007812 L 0.0664062 -7.207031 L 2.636719 -7.207031 L 2.636719 0 L 4.625 0 Z M 4.625 -7.207031 "/></g></g></g><g fill="rgb(0%, 0%, 0%)" fill-opacity="1"><g transform="translate(60.040768, 39.287489)"><g><path d="M 6.015625 -1.800781 L 2.78125 -1.800781 L 2.78125 -3.617188 L 5.882812 -3.617188 L 5.882812 -5.417969 L 2.78125 -5.417969 L 2.78125 -7.207031 L 6.015625 -7.207031 L 6.015625 -9.007812 L 0.796875 -9.007812 L 0.796875 0 L 6.015625 0 Z M 6.015625 -1.800781 "/></g></g></g></svg>